# xmcd CD database file
#
# Track frame offsets:
#	150
#	12817
#	33487
#	53845
#	69670
#	94856
#	111825
#	128480
#	144450
#	166389
#	181775
#	195562
#	215909
#	233503
#	248454
#
# Disc length: 3609 seconds
#
# Revision: 0
# Processed by: cddbd v1.5.2PL0 Copyright (c) Steve Scherf et al.
# Submitted via: CDex 1.51
#
DISCID=c50e170f
DTITLE=Rory Ellis - Road Of The Braver Man
DYEAR=2006
DGENRE=Blues
TTITLE0=Big Picture
TTITLE1=Union Hotel
TTITLE2=Lambs
TTITLE3=Railway Parade
TTITLE4=Miguelito
TTITLE5=Road Of The Braver Man
TTITLE6=Heaven To Hell
TTITLE7=Here Me Now
TTITLE8=Rollercoaster
TTITLE9=Good Friends
TTITLE10=My Sheet
TTITLE11=Eight Drops Of Blood
TTITLE12=Let It Go
TTITLE13=Last Man Standing
TTITLE14=Million Dollar Question
EXTD=YEAR: 2006
EXTT0=
EXTT1=
EXTT2=
EXTT3=
EXTT4=
EXTT5=
EXTT6=
EXTT7=
EXTT8=
EXTT9=
EXTT10=
EXTT11=
EXTT12=
EXTT13=
EXTT14=
PLAYORDER=
